<svg width="30" height="22" viewBox="0 0 30 22" fill="none" xmlns="http://www.w3.org/2000/svg">
<path d="M0.860352 21.4612V16.5029C0.860352 15.9362 1.04697 15.4494 1.42022 15.0426C1.79344 14.6357 2.25159 14.4142 2.79467 14.3779H6.88937C7.27078 14.3779 7.63312 14.4687 7.97637 14.6503C8.31966 14.8319 8.60299 15.0962 8.82638 15.443C9.54743 16.4547 10.446 17.2384 11.5222 17.7942C12.5983 18.35 13.7575 18.6279 14.9998 18.6279C16.2475 18.6279 17.414 18.35 18.4992 17.7942C19.5844 17.2384 20.4848 16.4547 21.2004 15.443C21.4347 15.0962 21.7221 14.8319 22.0627 14.6503C22.4032 14.4687 22.7524 14.3779 23.1102 14.3779H27.2049C27.7534 14.4142 28.2175 14.6357 28.5971 15.0426C28.9767 15.4494 29.1665 15.9362 29.1665 16.5029V21.4612H20.6665V18.0203C19.8764 18.6651 18.9987 19.1637 18.0334 19.516C17.068 19.8684 16.0568 20.0445 14.9998 20.0445C13.9663 20.0445 12.9701 19.8715 12.0111 19.5255C11.0522 19.1795 10.1686 18.6841 9.36035 18.0394V21.4612H0.860352ZM14.9998 16.1214C14.1934 16.1214 13.4296 15.933 12.7086 15.5561C11.9875 15.1793 11.3827 14.6612 10.8942 14.0019C10.5654 13.5387 10.1772 13.1451 9.7295 12.8209C9.28181 12.4967 8.79461 12.2619 8.26789 12.1166C8.95079 11.5155 9.95336 11.0609 11.2756 10.7531C12.5978 10.4452 13.8392 10.2913 14.9998 10.2913C16.1604 10.2913 17.4018 10.4452 18.724 10.7531C20.0462 11.0609 21.0579 11.5155 21.7589 12.1166C21.2377 12.2619 20.7518 12.4967 20.3014 12.8209C19.8509 13.1451 19.4614 13.5387 19.1326 14.0019C18.6677 14.6848 18.0701 15.2088 17.34 15.5738C16.6099 15.9389 15.8298 16.1214 14.9998 16.1214ZM4.48376 11.8714C3.52113 11.8714 2.6902 11.5218 1.99096 10.8226C1.29171 10.1233 0.942093 9.29238 0.942093 8.32975C0.942093 7.34354 1.29171 6.50672 1.99096 5.81928C2.6902 5.13182 3.52113 4.78809 4.48376 4.78809C5.46997 4.78809 6.3068 5.13182 6.99424 5.81928C7.6817 6.50672 8.02543 7.34354 8.02543 8.32975C8.02543 9.29238 7.6817 10.1233 6.99424 10.8226C6.3068 11.5218 5.46997 11.8714 4.48376 11.8714ZM25.5158 11.8714C24.5532 11.8714 23.7223 11.5218 23.023 10.8226C22.3238 10.1233 21.9741 9.29238 21.9741 8.32975C21.9741 7.34354 22.3238 6.50672 23.023 5.81928C23.7223 5.13182 24.5532 4.78809 25.5158 4.78809C26.502 4.78809 27.3389 5.13182 28.0263 5.81928C28.7138 6.50672 29.0575 7.34354 29.0575 8.32975C29.0575 9.29238 28.7138 10.1233 28.0263 10.8226C27.3389 11.5218 26.502 11.8714 25.5158 11.8714ZM14.9998 7.62142C14.0372 7.62142 13.2062 7.2718 12.507 6.57256C11.8077 5.87331 11.4581 5.04238 11.4581 4.07975C11.4581 3.09354 11.8077 2.25672 12.507 1.56928C13.2062 0.881817 14.0372 0.538086 14.9998 0.538086C15.986 0.538086 16.8228 0.881817 17.5103 1.56928C18.1977 2.25672 18.5415 3.09354 18.5415 4.07975C18.5415 5.04238 18.1977 5.87331 17.5103 6.57256C16.8228 7.2718 15.986 7.62142 14.9998 7.62142Z" fill="#333332"/>
</svg>
