<svg width="34" height="34" viewBox="0 0 34 34" fill="none" xmlns="http://www.w3.org/2000/svg">
<mask id="mask0_357_934" style="mask-type:alpha" maskUnits="userSpaceOnUse" x="0" y="0" width="34" height="34">
<rect width="34" height="34" fill="#D9D9D9"/>
</mask>
<g mask="url(#mask0_357_934)">
<path d="M17 27.843L15.9266 26.8731C13.6145 24.7609 11.702 22.9528 10.1891 21.449C8.67616 19.9451 7.48198 18.6188 6.60655 17.47C5.73112 16.3212 5.11951 15.2819 4.77172 14.352C4.42391 13.4221 4.25 12.4867 4.25 11.5459C4.25 9.74418 4.86207 8.23125 6.08621 7.00711C7.31035 5.78297 8.82328 5.1709 10.625 5.1709C11.8709 5.1709 13.0397 5.48965 14.1312 6.12715C15.2228 6.76465 16.1791 7.69183 17 8.9087C17.8209 7.69183 18.7772 6.76465 19.8688 6.12715C20.9603 5.48965 22.1291 5.1709 23.375 5.1709C25.1767 5.1709 26.6896 5.78297 27.9138 7.00711C29.1379 8.23125 29.75 9.74418 29.75 11.5459C29.75 12.4867 29.5761 13.4221 29.2283 14.352C28.8805 15.2819 28.2689 16.3212 27.3934 17.47C26.518 18.6188 25.3284 19.9451 23.8245 21.449C22.3207 22.9528 20.4036 24.7609 18.0734 26.8731L17 27.843Z" fill="#1C1B1F"/>
</g>
</svg>
