<svg width="21" height="21" viewBox="0 0 21 21" fill="none" xmlns="http://www.w3.org/2000/svg">
<path d="M4.54861 16.4514L0.832584 14.4354L1.66622 13.6017L4.9627 14.0976L10.8419 8.21839L0.418457 2.57896L1.47554 1.49468L14.2964 4.74756L18.4674 0.565661C18.7416 0.291418 19.0663 0.154297 19.4413 0.154297C19.8164 0.154297 20.141 0.291418 20.4153 0.565661C20.6896 0.839904 20.8267 1.1691 20.8267 1.55326C20.8267 1.93738 20.6896 2.26657 20.4153 2.54081L16.2797 6.73089L19.5053 19.5245L18.4483 20.6088L12.7816 10.1854L6.95694 16.0101L7.42554 19.3338L6.56463 20.1947L4.54861 16.4514Z" fill="#1C1B1F"/>
</svg>
