<svg width="43" height="42" viewBox="0 0 43 42" fill="none" xmlns="http://www.w3.org/2000/svg">
<path id="Star 2" d="M21.5938 0L23.041 14.2849L30.1734 1.82365L25.6853 15.4622L37.2695 6.97928L27.6221 17.6133L41.6551 14.5754L28.5166 20.3661L42.5719 23.2986L28.214 23.2448L39.8615 31.6406L26.7667 25.7515L33.9923 38.159L24.425 27.4529L25.9794 41.7266L21.5938 28.0547L17.2081 41.7266L18.7625 27.4529L9.19516 38.159L16.4208 25.7515L3.32603 31.6406L14.9735 23.2448L0.615553 23.2986L14.6709 20.3661L1.5324 14.5754L15.5654 17.6133L5.91804 6.97928L17.5022 15.4622L13.0141 1.82365L20.1465 14.2849L21.5938 0Z" fill="#F7F5F2"/>
</svg>
