<svg width="87" height="72" viewBox="0 0 87 72" fill="none" xmlns="http://www.w3.org/2000/svg">
<path id="&#226;&#128;&#156;" d="M40.9706 0.178711L41.2368 0.445624C23.1316 8.98698 13.2802 21.799 11.9489 39.1486C14.0789 38.6148 16.209 38.3479 18.0728 38.3479C22.5991 38.3479 26.3266 39.9494 29.5217 43.1524C32.7167 46.3554 34.3142 50.0922 34.3142 54.6298C34.3142 59.1674 32.7167 62.9043 29.5217 66.1073C26.3266 69.3103 22.5991 70.9118 18.0728 70.9118C12.7477 70.9118 8.48762 69.0434 5.29257 65.5734C2.09752 62.1035 0.5 57.8328 0.5 53.0283C0.5 39.6825 4.76006 27.9381 13.0139 17.7952C21.2678 7.6524 30.5867 1.78021 40.9706 0.178711ZM63.3359 38.3479L63.6022 38.6148C68.1285 38.6148 71.856 40.2163 75.0511 43.4193C78.2461 46.6223 79.8437 50.3591 79.8437 54.8967C79.8437 59.4343 78.2461 63.1712 75.0511 66.3742C71.856 69.5772 68.1285 71.1787 63.6022 71.1787C58.2771 71.1787 54.017 69.3103 50.822 65.8404C47.6269 62.3704 46.0294 58.0998 46.0294 53.2952C46.0294 39.9494 50.2895 28.205 58.5434 18.0622C66.7972 7.91931 76.1161 2.04712 86.5 0.445624C68.3947 8.98698 58.5434 21.799 57.2121 39.1486C59.3421 38.6148 61.4721 38.3479 63.3359 38.3479Z" fill="#333332"/>
</svg>
