<svg width="126" height="129" viewBox="0 0 126 129" fill="none" xmlns="http://www.w3.org/2000/svg">
<path id="Vector" opacity="0.4" d="M44.25 77.7185H106.75L85.1875 48.9185L70.8125 68.1185L61.125 55.3185L44.25 77.7185ZM38 103.318C34.5625 103.318 31.6198 102.065 29.1719 99.5585C26.724 97.0518 25.5 94.0385 25.5 90.5185V13.7185C25.5 10.1985 26.724 7.18512 29.1719 4.67846C31.6198 2.17179 34.5625 0.918457 38 0.918457H113C116.438 0.918457 119.38 2.17179 121.828 4.67846C124.276 7.18512 125.5 10.1985 125.5 13.7185V90.5185C125.5 94.0385 124.276 97.0518 121.828 99.5585C119.38 102.065 116.438 103.318 113 103.318H38ZM38 90.5185H113V13.7185H38V90.5185ZM13 128.918C9.5625 128.918 6.61979 127.665 4.17188 125.158C1.72396 122.652 0.5 119.638 0.5 116.118V26.5185H13V116.118H100.5V128.918H13Z" fill="#F7F5F2" fill-opacity="0.4"/>
</svg>
