<svg width="126" height="130" viewBox="0 0 126 130" fill="none" xmlns="http://www.w3.org/2000/svg">
<path opacity="0.4" d="M62.9998 89.1126C57.2127 89.1126 52.2938 87.0872 48.2428 83.0362C44.1919 78.9853 42.1664 74.0663 42.1664 68.2793V26.6126C42.1664 20.8256 44.1919 15.9066 48.2428 11.8557C52.2938 7.80476 57.2127 5.7793 62.9998 5.7793C68.7868 5.7793 73.7058 7.80476 77.7567 11.8557C81.8076 15.9066 83.8331 20.8256 83.8331 26.6126V68.2793C83.8331 74.0663 81.8076 78.9853 77.7567 83.0362C73.7058 87.0872 68.7868 89.1126 62.9998 89.1126ZM56.0553 137.724V116.37C44.0183 114.749 34.0646 109.367 26.1942 100.224C18.3239 91.0802 14.3887 80.4321 14.3887 68.2793H28.2776C28.2776 77.8858 31.663 86.0744 38.4338 92.8453C45.2046 99.6161 53.3933 103.002 62.9998 103.002C72.6063 103.002 80.7949 99.6161 87.5658 92.8453C94.3366 86.0744 97.722 77.8858 97.722 68.2793H111.611C111.611 80.4321 107.676 91.0802 99.8053 100.224C91.935 109.367 81.9813 114.749 69.9442 116.37V137.724H56.0553ZM62.9998 75.2237C64.9674 75.2237 66.6167 74.5582 67.9477 73.2272C69.2787 71.8962 69.9442 70.2469 69.9442 68.2793V26.6126C69.9442 24.645 69.2787 22.9957 67.9477 21.6647C66.6167 20.3337 64.9674 19.6682 62.9998 19.6682C61.0322 19.6682 59.3829 20.3337 58.0519 21.6647C56.7208 22.9957 56.0553 24.645 56.0553 26.6126V68.2793C56.0553 70.2469 56.7208 71.8962 58.0519 73.2272C59.3829 74.5582 61.0322 75.2237 62.9998 75.2237Z" fill="#F7F5F2"/>
</svg>
