<svg width="34" height="34" viewBox="0 0 34 34" fill="none" xmlns="http://www.w3.org/2000/svg">
<mask id="mask0_357_944" style="mask-type:alpha" maskUnits="userSpaceOnUse" x="0" y="0" width="34" height="34">
<rect width="34" height="34" fill="#D9D9D9"/>
</mask>
<g mask="url(#mask0_357_944)">
<path d="M22.1762 17.1093C20.0475 15.3385 18.2622 13.6381 16.8201 12.008C15.378 10.3779 14.6569 8.8963 14.6569 7.56317C14.6569 6.51339 15.0193 5.62617 15.7439 4.9015C16.4686 4.1768 17.3559 3.81445 18.4057 3.81445C19.0704 3.81445 19.7288 3.992 20.3808 4.34708C21.0329 4.70215 21.6313 5.24202 22.1762 5.96669C22.7211 5.24202 23.3195 4.70215 23.9715 4.34708C24.6236 3.992 25.2819 3.81445 25.9467 3.81445C26.9965 3.81445 27.8837 4.1768 28.6084 4.9015C29.3331 5.62617 29.6954 6.51339 29.6954 7.56317C29.6954 8.8963 28.9744 10.3779 27.5323 12.008C26.0902 13.6381 24.3048 15.3385 22.1762 17.1093ZM2.8877 29.0965V17.5452H7.13769V29.0965H2.8877ZM19.3428 30.2407L8.5544 27.0887V17.5452H11.9244L22.3397 21.3866V23.6478H18.0896L14.4117 22.3374L13.9704 23.4026L18.0352 24.7375H29.2595V26.9715L19.3428 30.2407Z" fill="#1C1B1F"/>
</g>
</svg>
